  0
SECTION
  2
HEADER
  9
$ANGBASE
  50
0.0
  9
$ANGDIR
  70
1
  9
$MEASUREMENT
  70
0
  0
ENDSEC
  0
SECTION
  2
TABLES
  0
TABLE
  2
LTYPE
  70
4
  0
LTYPE
  5
40F
  2
CONTINUOUS
  70
0
  3
Solid line
  72
65
  73
0
  40
0.0
  0
LTYPE
  5
410
  2
DASHDOT
 70
0
  3
Dash Dot ____ _ ____ _
 72
65
 73
4
 40
2.0
 49
1.25
 49
-0.25
 49
0.25
 49
-0.25
  0
LTYPE
  5
411
  2
DASHED
 70
0
  3
Dashed __ __ __ __ __
 72
65
 73
2
 40
0.75
 49
0.5
 49
-0.25
  0
LTYPE
  5
43B
  2
DOTTED
 70
0
  3
Dotted .  .  .  .
 72
65
 73
2
 40
0.2
 49
0.0
 49
-0.2
  0
ENDTAB
  0
TABLE
  2
STYLE
  70
4
  0
STYLE
  2
KICAD
  70
0
  40
0
  41
1
  42
1
  50
0
  71
0
  3
isocp.shx
  0
STYLE
  2
KICADB
  70
0
  40
0
  41
1
  42
1
  50
0
  71
0
  3
isocp.shx
  0
STYLE
  2
KICADI
  70
0
  40
0
  41
1
  42
1
  50
15
  71
0
  3
isocp.shx
  0
STYLE
  2
KICADBI
  70
0
  40
0
  41
1
  42
1
  50
15
  71
0
  3
isocp.shx
  0
ENDTAB
  0
TABLE
  2
LAYER
  70
1
  0
LAYER
  2
BLACK
  70
0
  62
7
  6
CONTINUOUS
  0
ENDTAB
  0
ENDSEC
  0
SECTION
  2
ENTITIES
0
LINE
8
BLACK
6
CONTINUOUS
10
1.93785
20
0.550803
11
1.93879
21
0.549865
0
LINE
8
BLACK
6
CONTINUOUS
10
1.93879
20
0.549865
11
1.93894
21
0.549491
0
LINE
8
BLACK
6
CONTINUOUS
10
1.93894
20
0.549491
11
1.93925
21
0.549226
0
LINE
8
BLACK
6
CONTINUOUS
10
1.93925
20
0.549226
11
1.94019
21
0.547351
0
LINE
8
BLACK
6
CONTINUOUS
10
1.94019
20
0.547351
11
1.94023
21
0.54678
0
LINE
8
BLACK
6
CONTINUOUS
10
1.94023
20
0.54678
11
1.94045
21
0.54625
0
LINE
8
BLACK
6
CONTINUOUS
10
1.94045
20
0.54625
11
1.94045
21
0.540626
0
LINE
8
BLACK
6
CONTINUOUS
10
1.94045
20
0.540626
11
1.94023
21
0.540097
0
LINE
8
BLACK
6
CONTINUOUS
10
1.94023
20
0.540097
11
1.94019
21
0.539526
0
LINE
8
BLACK
6
CONTINUOUS
10
1.94019
20
0.539526
11
1.93925
21
0.537651
0
LINE
8
BLACK
6
CONTINUOUS
10
1.93925
20
0.537651
11
1.93894
21
0.537386
0
LINE
8
BLACK
6
CONTINUOUS
10
1.93894
20
0.537386
11
1.93879
21
0.537011
0
LINE
8
BLACK
6
CONTINUOUS
10
1.93879
20
0.537011
11
1.93785
21
0.536074
0
LINE
8
BLACK
6
CONTINUOUS
10
1.93785
20
0.536074
11
1.93748
21
0.535919
0
LINE
8
BLACK
6
CONTINUOUS
10
1.93748
20
0.535919
11
1.93721
21
0.535613
0
LINE
8
BLACK
6
CONTINUOUS
10
1.93721
20
0.535613
11
1.93534
21
0.534676
0
LINE
8
BLACK
6
CONTINUOUS
10
1.93534
20
0.534676
11
1.93476
21
0.534635
0
LINE
8
BLACK
6
CONTINUOUS
10
1.93476
20
0.534635
11
1.93424
21
0.534416
0
LINE
8
BLACK
6
CONTINUOUS
10
1.93424
20
0.534416
11
1.92955
21
0.534416
0
LINE
8
BLACK
6
CONTINUOUS
10
1.92955
20
0.534416
11
1.92902
21
0.534635
0
LINE
8
BLACK
6
CONTINUOUS
10
1.92902
20
0.534635
11
1.92845
21
0.534676
0
LINE
8
BLACK
6
CONTINUOUS
10
1.92845
20
0.534676
11
1.92657
21
0.535613
0
LINE
8
BLACK
6
CONTINUOUS
10
1.92657
20
0.535613
11
1.92631
21
0.535919
0
LINE
8
BLACK
6
CONTINUOUS
10
1.92631
20
0.535919
11
1.92593
21
0.536074
0
LINE
8
BLACK
6
CONTINUOUS
10
1.92593
20
0.536074
11
1.925
21
0.537011
0
LINE
8
BLACK
6
CONTINUOUS
10
1.925
20
0.537011
11
1.92484
21
0.537386
0
LINE
8
BLACK
6
CONTINUOUS
10
1.92484
20
0.537386
11
1.92454
21
0.537651
0
LINE
8
BLACK
6
CONTINUOUS
10
1.92454
20
0.537651
11
1.92404
21
0.538633
0
LINE
8
BLACK
6
CONTINUOUS
10
1.92404
20
0.538633
11
1.91992
21
0.535025
0
LINE
8
BLACK
6
CONTINUOUS
10
1.91992
20
0.535025
11
1.9191
21
0.534747
0
LINE
8
BLACK
6
CONTINUOUS
10
1.9191
20
0.534747
11
1.9183
21
0.534416
0
LINE
8
BLACK
6
CONTINUOUS
10
1.9183
20
0.534416
11
1.91822
21
0.534449
0
LINE
8
BLACK
6
CONTINUOUS
10
1.91822
20
0.534449
11
1.91814
21
0.534421
0
LINE
8
BLACK
6
CONTINUOUS
10
1.91814
20
0.534421
11
1.91736
21
0.534805
0
LINE
8
BLACK
6
CONTINUOUS
10
1.91736
20
0.534805
11
1.91656
21
0.535137
0
LINE
8
BLACK
6
CONTINUOUS
10
1.91656
20
0.535137
11
1.91653
21
0.535217
0
LINE
8
BLACK
6
CONTINUOUS
10
1.91653
20
0.535217
11
1.91645
21
0.535256
0
LINE
8
BLACK
6
CONTINUOUS
10
1.91645
20
0.535256
11
1.91617
21
0.536077
0
LINE
8
BLACK
6
CONTINUOUS
10
1.91617
20
0.536077
11
1.91584
21
0.536877
0
LINE
8
BLACK
6
CONTINUOUS
10
1.91584
20
0.536877
11
1.91584
21
0.549063
0
LINE
8
BLACK
6
CONTINUOUS
10
1.91584
20
0.549063
11
1.91656
21
0.550803
0
LINE
8
BLACK
6
CONTINUOUS
10
1.91656
20
0.550803
11
1.9183
21
0.551523
0
LINE
8
BLACK
6
CONTINUOUS
10
1.9183
20
0.551523
11
1.92004
21
0.550803
0
LINE
8
BLACK
6
CONTINUOUS
10
1.92004
20
0.550803
11
1.92076
21
0.549063
0
LINE
8
BLACK
6
CONTINUOUS
10
1.92076
20
0.549063
11
1.92076
21
0.542299
0
LINE
8
BLACK
6
CONTINUOUS
10
1.92076
20
0.542299
11
1.92418
21
0.54529
0
LINE
8
BLACK
6
CONTINUOUS
10
1.92418
20
0.54529
11
1.925
21
0.545567
0
LINE
8
BLACK
6
CONTINUOUS
10
1.925
20
0.545567
11
1.9258
21
0.545899
0
LINE
8
BLACK
6
CONTINUOUS
10
1.9258
20
0.545899
11
1.92588
21
0.545865
0
LINE
8
BLACK
6
CONTINUOUS
10
1.92588
20
0.545865
11
1.92596
21
0.545893
0
LINE
8
BLACK
6
CONTINUOUS
10
1.92596
20
0.545893
11
1.92674
21
0.54551
0
LINE
8
BLACK
6
CONTINUOUS
10
1.92674
20
0.54551
11
1.92754
21
0.545178
0
LINE
8
BLACK
6
CONTINUOUS
10
1.92754
20
0.545178
11
1.92757
21
0.545097
0
LINE
8
BLACK
6
CONTINUOUS
10
1.92757
20
0.545097
11
1.92765
21
0.545059
0
LINE
8
BLACK
6
CONTINUOUS
10
1.92765
20
0.545059
11
1.92793
21
0.544238
0
LINE
8
BLACK
6
CONTINUOUS
10
1.92793
20
0.544238
11
1.92826
21
0.543438
0
LINE
8
BLACK
6
CONTINUOUS
10
1.92826
20
0.543438
11
1.92826
21
0.541207
0
LINE
8
BLACK
6
CONTINUOUS
10
1.92826
20
0.541207
11
1.92876
21
0.540209
0
LINE
8
BLACK
6
CONTINUOUS
10
1.92876
20
0.540209
11
1.92913
21
0.539836
0
LINE
8
BLACK
6
CONTINUOUS
10
1.92913
20
0.539836
11
1.93013
21
0.539337
0
LINE
8
BLACK
6
CONTINUOUS
10
1.93013
20
0.539337
11
1.93365
21
0.539337
0
LINE
8
BLACK
6
CONTINUOUS
10
1.93365
20
0.539337
11
1.93465
21
0.539836
0
LINE
8
BLACK
6
CONTINUOUS
10
1.93465
20
0.539836
11
1.93502
21
0.540209
0
LINE
8
BLACK
6
CONTINUOUS
10
1.93502
20
0.540209
11
1.93552
21
0.541207
0
LINE
8
BLACK
6
CONTINUOUS
10
1.93552
20
0.541207
11
1.93552
21
0.54567
0
LINE
8
BLACK
6
CONTINUOUS
10
1.93552
20
0.54567
11
1.93502
21
0.546668
0
LINE
8
BLACK
6
CONTINUOUS
10
1.93502
20
0.546668
11
1.93437
21
0.547323
0
LINE
8
BLACK
6
CONTINUOUS
10
1.93437
20
0.547323
11
1.93365
21
0.549063
0
LINE
8
BLACK
6
CONTINUOUS
10
1.93365
20
0.549063
11
1.93437
21
0.550803
0
LINE
8
BLACK
6
CONTINUOUS
10
1.93437
20
0.550803
11
1.93611
21
0.551523
0
LINE
8
BLACK
6
CONTINUOUS
10
1.93611
20
0.551523
11
1.93785
21
0.550803
0
LINE
8
BLACK
6
CONTINUOUS
10
1.93972
20
0.565801
11
1.94045
21
0.564061
0
LINE
8
BLACK
6
CONTINUOUS
10
1.94045
20
0.564061
11
1.94045
21
0.562186
0
LINE
8
BLACK
6
CONTINUOUS
10
1.94045
20
0.562186
11
1.94029
21
0.561812
0
LINE
8
BLACK
6
CONTINUOUS
10
1.94029
20
0.561812
11
1.94032
21
0.561408
0
LINE
8
BLACK
6
CONTINUOUS
10
1.94032
20
0.561408
11
1.93938
21
0.558596
0
LINE
8
BLACK
6
CONTINUOUS
10
1.93938
20
0.558596
11
1.93901
21
0.558163
0
LINE
8
BLACK
6
CONTINUOUS
10
1.93901
20
0.558163
11
1.93879
21
0.557634
0
LINE
8
BLACK
6
CONTINUOUS
10
1.93879
20
0.557634
11
1.93691
21
0.555759
0
LINE
8
BLACK
6
CONTINUOUS
10
1.93691
20
0.555759
11
1.93638
21
0.55554
0
LINE
8
BLACK
6
CONTINUOUS
10
1.93638
20
0.55554
11
1.93595
21
0.555165
0
LINE
8
BLACK
6
CONTINUOUS
10
1.93595
20
0.555165
11
1.93314
21
0.554227
0
LINE
8
BLACK
6
CONTINUOUS
10
1.93314
20
0.554227
11
1.93273
21
0.554256
0
LINE
8
BLACK
6
CONTINUOUS
10
1.93273
20
0.554256
11
1.93236
21
0.554101
0
LINE
8
BLACK
6
CONTINUOUS
10
1.93236
20
0.554101
11
1.9183
21
0.554101
0
LINE
8
BLACK
6
CONTINUOUS
10
1.9183
20
0.554101
11
1.91656
21
0.554822
0
LINE
8
BLACK
6
CONTINUOUS
10
1.91656
20
0.554822
11
1.91584
21
0.556562
0
LINE
8
BLACK
6
CONTINUOUS
10
1.91584
20
0.556562
11
1.91656
21
0.558302
0
LINE
8
BLACK
6
CONTINUOUS
10
1.91656
20
0.558302
11
1.9183
21
0.559022
0
LINE
8
BLACK
6
CONTINUOUS
10
1.9183
20
0.559022
11
1.93196
21
0.559022
0
LINE
8
BLACK
6
CONTINUOUS
10
1.93196
20
0.559022
11
1.93384
21
0.55965
0
LINE
8
BLACK
6
CONTINUOUS
10
1.93384
20
0.55965
11
1.9349
21
0.560703
0
LINE
8
BLACK
6
CONTINUOUS
10
1.9349
20
0.560703
11
1.93552
21
0.562585
0
LINE
8
BLACK
6
CONTINUOUS
10
1.93552
20
0.562585
11
1.93552
21
0.564061
0
LINE
8
BLACK
6
CONTINUOUS
10
1.93552
20
0.564061
11
1.93624
21
0.565801
0
LINE
8
BLACK
6
CONTINUOUS
10
1.93624
20
0.565801
11
1.93798
21
0.566521
0
LINE
8
BLACK
6
CONTINUOUS
10
1.93798
20
0.566521
11
1.93972
21
0.565801
0
LINE
8
BLACK
6
CONTINUOUS
10
2.23819
20
0.716929
11
2.23986
21
0.716237
0
LINE
8
BLACK
6
CONTINUOUS
10
2.23986
20
0.716237
11
2.24055
21
0.714567
0
LINE
8
BLACK
6
CONTINUOUS
10
2.24055
20
0.714567
11
2.24055
21
0.387795
0
LINE
8
BLACK
6
CONTINUOUS
10
2.24055
20
0.387795
11
2.23986
21
0.386125
0
LINE
8
BLACK
6
CONTINUOUS
10
2.23986
20
0.386125
11
2.23819
21
0.385433
0
LINE
8
BLACK
6
CONTINUOUS
10
2.23819
20
0.385433
11
1.73228
21
0.385433
0
LINE
8
BLACK
6
CONTINUOUS
10
1.73228
20
0.385433
11
1.7315
21
0.385756
0
LINE
8
BLACK
6
CONTINUOUS
10
1.7315
20
0.385756
11
1.73071
21
0.386035
0
LINE
8
BLACK
6
CONTINUOUS
10
1.73071
20
0.386035
11
1.6185
21
0.486429
0
LINE
8
BLACK
6
CONTINUOUS
10
1.6185
20
0.486429
11
1.61847
21
0.486492
0
LINE
8
BLACK
6
CONTINUOUS
10
1.61847
20
0.486492
11
1.61841
21
0.486519
0
LINE
8
BLACK
6
CONTINUOUS
10
1.61841
20
0.486519
11
1.61809
21
0.487298
0
LINE
8
BLACK
6
CONTINUOUS
10
1.61809
20
0.487298
11
1.61772
21
0.488058
0
LINE
8
BLACK
6
CONTINUOUS
10
1.61772
20
0.488058
11
1.61774
21
0.488124
0
LINE
8
BLACK
6
CONTINUOUS
10
1.61774
20
0.488124
11
1.61772
21
0.488189
0
LINE
8
BLACK
6
CONTINUOUS
10
1.61772
20
0.488189
11
1.61772
21
0.612205
0
LINE
8
BLACK
6
CONTINUOUS
10
1.61772
20
0.612205
11
1.61774
21
0.612258
0
LINE
8
BLACK
6
CONTINUOUS
10
1.61774
20
0.612258
11
1.61772
21
0.612313
0
LINE
8
BLACK
6
CONTINUOUS
10
1.61772
20
0.612313
11
1.61808
21
0.613086
0
LINE
8
BLACK
6
CONTINUOUS
10
1.61808
20
0.613086
11
1.61841
21
0.613875
0
LINE
8
BLACK
6
CONTINUOUS
10
1.61841
20
0.613875
11
1.61846
21
0.613897
0
LINE
8
BLACK
6
CONTINUOUS
10
1.61846
20
0.613897
11
1.61849
21
0.61395
0
LINE
8
BLACK
6
CONTINUOUS
10
1.61849
20
0.61395
11
1.73069
21
0.716312
0
LINE
8
BLACK
6
CONTINUOUS
10
1.73069
20
0.716312
11
1.73149
21
0.716602
0
LINE
8
BLACK
6
CONTINUOUS
10
1.73149
20
0.716602
11
1.73228
21
0.716929
0
LINE
8
BLACK
6
CONTINUOUS
10
1.73228
20
0.716929
11
2.23819
21
0.716929
0
LINE
8
BLACK
6
CONTINUOUS
10
1.7332
20
0.712205
11
1.62244
21
0.611162
0
LINE
8
BLACK
6
CONTINUOUS
10
1.62244
20
0.611162
11
1.62244
21
0.489245
0
LINE
8
BLACK
6
CONTINUOUS
10
1.62244
20
0.489245
11
1.73319
21
0.390157
0
LINE
8
BLACK
6
CONTINUOUS
10
1.73319
20
0.390157
11
2.23583
21
0.390157
0
LINE
8
BLACK
6
CONTINUOUS
10
2.23583
20
0.390157
11
2.23583
21
0.712205
0
LINE
8
BLACK
6
CONTINUOUS
10
2.23583
20
0.712205
11
1.7332
21
0.712205
0
LINE
8
BLACK
6
CONTINUOUS
10
1.58426
20
0.570007
11
1.58581
21
0.568709
0
LINE
8
BLACK
6
CONTINUOUS
10
1.58581
20
0.568709
11
1.58616
21
0.56672
0
LINE
8
BLACK
6
CONTINUOUS
10
1.58616
20
0.56672
11
1.58515
21
0.564971
0
LINE
8
BLACK
6
CONTINUOUS
10
1.58515
20
0.564971
11
1.58325
21
0.56428
0
LINE
8
BLACK
6
CONTINUOUS
10
1.58325
20
0.56428
11
1.5712
21
0.56428
0
LINE
8
BLACK
6
CONTINUOUS
10
1.5712
20
0.56428
11
1.5712
21
0.555187
0
LINE
8
BLACK
6
CONTINUOUS
10
1.5712
20
0.555187
11
1.57875
21
0.555187
0
LINE
8
BLACK
6
CONTINUOUS
10
1.57875
20
0.555187
11
1.57976
21
0.555009
0
LINE
8
BLACK
6
CONTINUOUS
10
1.57976
20
0.555009
11
1.58131
21
0.553711
0
LINE
8
BLACK
6
CONTINUOUS
10
1.58131
20
0.553711
11
1.58166
21
0.551722
0
LINE
8
BLACK
6
CONTINUOUS
10
1.58166
20
0.551722
11
1.58065
21
0.549972
0
LINE
8
BLACK
6
CONTINUOUS
10
1.58065
20
0.549972
11
1.57875
21
0.549282
0
LINE
8
BLACK
6
CONTINUOUS
10
1.57875
20
0.549282
11
1.5712
21
0.549282
0
LINE
8
BLACK
6
CONTINUOUS
10
1.5712
20
0.549282
11
1.5712
21
0.538689
0
LINE
8
BLACK
6
CONTINUOUS
10
1.5712
20
0.538689
11
1.58325
21
0.538689
0
LINE
8
BLACK
6
CONTINUOUS
10
1.58325
20
0.538689
11
1.58426
21
0.538511
0
LINE
8
BLACK
6
CONTINUOUS
10
1.58426
20
0.538511
11
1.58581
21
0.537213
0
LINE
8
BLACK
6
CONTINUOUS
10
1.58581
20
0.537213
11
1.58616
21
0.535224
0
LINE
8
BLACK
6
CONTINUOUS
10
1.58616
20
0.535224
11
1.58515
21
0.533474
0
LINE
8
BLACK
6
CONTINUOUS
10
1.58515
20
0.533474
11
1.58325
21
0.532784
0
LINE
8
BLACK
6
CONTINUOUS
10
1.58325
20
0.532784
11
1.56825
21
0.532784
0
LINE
8
BLACK
6
CONTINUOUS
10
1.56825
20
0.532784
11
1.56787
21
0.532851
0
LINE
8
BLACK
6
CONTINUOUS
10
1.56787
20
0.532851
11
1.56774
21
0.532828
0
LINE
8
BLACK
6
CONTINUOUS
10
1.56774
20
0.532828
11
1.56762
21
0.532894
0
LINE
8
BLACK
6
CONTINUOUS
10
1.56762
20
0.532894
11
1.56724
21
0.532962
0
LINE
8
BLACK
6
CONTINUOUS
10
1.56724
20
0.532962
11
1.56665
21
0.533455
0
LINE
8
BLACK
6
CONTINUOUS
10
1.56665
20
0.533455
11
1.56599
21
0.533838
0
LINE
8
BLACK
6
CONTINUOUS
10
1.56599
20
0.533838
11
1.5659
21
0.534089
0
LINE
8
BLACK
6
CONTINUOUS
10
1.5659
20
0.534089
11
1.56569
21
0.53426
0
LINE
8
BLACK
6
CONTINUOUS
10
1.56569
20
0.53426
11
1.56556
21
0.535016
0
LINE
8
BLACK
6
CONTINUOUS
10
1.56556
20
0.535016
11
1.5653
21
0.535736
0
LINE
8
BLACK
6
CONTINUOUS
10
1.5653
20
0.535736
11
1.5653
21
0.567232
0
LINE
8
BLACK
6
CONTINUOUS
10
1.5653
20
0.567232
11
1.56537
21
0.567616
0
LINE
8
BLACK
6
CONTINUOUS
10
1.56537
20
0.567616
11
1.56534
21
0.567745
0
LINE
8
BLACK
6
CONTINUOUS
10
1.56534
20
0.567745
11
1.56541
21
0.567859
0
LINE
8
BLACK
6
CONTINUOUS
10
1.56541
20
0.567859
11
1.56548
21
0.568242
0
LINE
8
BLACK
6
CONTINUOUS
10
1.56548
20
0.568242
11
1.56597
21
0.56883
0
LINE
8
BLACK
6
CONTINUOUS
10
1.56597
20
0.56883
11
1.56635
21
0.569494
0
LINE
8
BLACK
6
CONTINUOUS
10
1.56635
20
0.569494
11
1.5666
21
0.569585
0
LINE
8
BLACK
6
CONTINUOUS
10
1.5666
20
0.569585
11
1.56677
21
0.56979
0
LINE
8
BLACK
6
CONTINUOUS
10
1.56677
20
0.56979
11
1.56753
21
0.569923
0
LINE
8
BLACK
6
CONTINUOUS
10
1.56753
20
0.569923
11
1.56825
21
0.570185
0
LINE
8
BLACK
6
CONTINUOUS
10
1.56825
20
0.570185
11
1.58325
21
0.570185
0
LINE
8
BLACK
6
CONTINUOUS
10
1.58325
20
0.570185
11
1.58426
21
0.570007
0
LINE
8
BLACK
6
CONTINUOUS
10
1.20512
20
1.26388
11
1.20679
21
1.26319
0
LINE
8
BLACK
6
CONTINUOUS
10
1.20679
20
1.26319
11
1.20748
21
1.26152
0
LINE
8
BLACK
6
CONTINUOUS
10
1.20748
20
1.26152
11
1.20748
21
0.902461
0
LINE
8
BLACK
6
CONTINUOUS
10
1.20748
20
0.902461
11
1.20679
21
0.90079
0
LINE
8
BLACK
6
CONTINUOUS
10
1.20679
20
0.90079
11
1.20512
21
0.900098
0
LINE
8
BLACK
6
CONTINUOUS
10
1.20512
20
0.900098
11
0.394882
21
0.900098
0
LINE
8
BLACK
6
CONTINUOUS
10
0.394882
20
0.900098
11
0.393212
21
0.90079
0
LINE
8
BLACK
6
CONTINUOUS
10
0.393212
20
0.90079
11
0.39252
21
0.902461
0
LINE
8
BLACK
6
CONTINUOUS
10
0.39252
20
0.902461
11
0.39252
21
1.26152
0
LINE
8
BLACK
6
CONTINUOUS
10
0.39252
20
1.26152
11
0.393212
21
1.26319
0
LINE
8
BLACK
6
CONTINUOUS
10
0.393212
20
1.26319
11
0.394882
21
1.26388
0
LINE
8
BLACK
6
CONTINUOUS
10
0.394882
20
1.26388
11
1.20512
21
1.26388
0
LINE
8
BLACK
6
CONTINUOUS
10
0.883071
20
1.25915
11
0.883071
21
1.2123
0
LINE
8
BLACK
6
CONTINUOUS
10
0.883071
20
1.2123
11
1.15394
21
1.2123
0
LINE
8
BLACK
6
CONTINUOUS
10
1.15394
20
1.2123
11
1.15561
21
1.21161
0
LINE
8
BLACK
6
CONTINUOUS
10
1.15561
20
1.21161
11
1.1563
21
1.20994
0
LINE
8
BLACK
6
CONTINUOUS
10
1.1563
20
1.20994
11
1.1563
21
0.954035
0
LINE
8
BLACK
6
CONTINUOUS
10
1.1563
20
0.954035
11
1.15561
21
0.952365
0
LINE
8
BLACK
6
CONTINUOUS
10
1.15561
20
0.952365
11
1.15394
21
0.951673
0
LINE
8
BLACK
6
CONTINUOUS
10
1.15394
20
0.951673
11
0.446063
21
0.951673
0
LINE
8
BLACK
6
CONTINUOUS
10
0.446063
20
0.951673
11
0.444393
21
0.952365
0
LINE
8
BLACK
6
CONTINUOUS
10
0.444393
20
0.952365
11
0.443701
21
0.954035
0
LINE
8
BLACK
6
CONTINUOUS
10
0.443701
20
0.954035
11
0.443701
21
1.20994
0
LINE
8
BLACK
6
CONTINUOUS
10
0.443701
20
1.20994
11
0.444393
21
1.21161
0
LINE
8
BLACK
6
CONTINUOUS
10
0.444393
20
1.21161
11
0.446063
21
1.2123
0
LINE
8
BLACK
6
CONTINUOUS
10
0.446063
20
1.2123
11
0.716929
21
1.2123
0
LINE
8
BLACK
6
CONTINUOUS
10
0.716929
20
1.2123
11
0.716929
21
1.25915
0
LINE
8
BLACK
6
CONTINUOUS
10
0.716929
20
1.25915
11
0.397244
21
1.25915
0
LINE
8
BLACK
6
CONTINUOUS
10
0.397244
20
1.25915
11
0.397244
21
0.904823
0
LINE
8
BLACK
6
CONTINUOUS
10
0.397244
20
0.904823
11
1.20276
21
0.904823
0
LINE
8
BLACK
6
CONTINUOUS
10
1.20276
20
0.904823
11
1.20276
21
1.25915
0
LINE
8
BLACK
6
CONTINUOUS
10
1.20276
20
1.25915
11
0.883071
21
1.25915
0
LINE
8
BLACK
6
CONTINUOUS
10
0.721654
20
1.25915
11
0.721654
21
1.20994
0
LINE
8
BLACK
6
CONTINUOUS
10
0.721654
20
1.20994
11
0.720962
21
1.20827
0
LINE
8
BLACK
6
CONTINUOUS
10
0.720962
20
1.20827
11
0.719291
21
1.20758
0
LINE
8
BLACK
6
CONTINUOUS
10
0.719291
20
1.20758
11
0.448425
21
1.20758
0
LINE
8
BLACK
6
CONTINUOUS
10
0.448425
20
1.20758
11
0.448425
21
0.956398
0
LINE
8
BLACK
6
CONTINUOUS
10
0.448425
20
0.956398
11
1.15157
21
0.956398
0
LINE
8
BLACK
6
CONTINUOUS
10
1.15157
20
0.956398
11
1.15157
21
1.20758
0
LINE
8
BLACK
6
CONTINUOUS
10
1.15157
20
1.20758
11
0.880709
21
1.20758
0
LINE
8
BLACK
6
CONTINUOUS
10
0.880709
20
1.20758
11
0.879038
21
1.20827
0
LINE
8
BLACK
6
CONTINUOUS
10
0.879038
20
1.20827
11
0.878346
21
1.20994
0
LINE
8
BLACK
6
CONTINUOUS
10
0.878346
20
1.20994
11
0.878346
21
1.25915
0
LINE
8
BLACK
6
CONTINUOUS
10
0.878346
20
1.25915
11
0.721654
21
1.25915
0
LINE
8
BLACK
6
CONTINUOUS
10
0.385591
20
0.924865
11
0.386311
21
0.923125
0
LINE
8
BLACK
6
CONTINUOUS
10
0.386311
20
0.923125
11
0.386311
21
0.911877
0
LINE
8
BLACK
6
CONTINUOUS
10
0.386311
20
0.911877
11
0.385591
21
0.910137
0
LINE
8
BLACK
6
CONTINUOUS
10
0.385591
20
0.910137
11
0.383851
21
0.909416
0
LINE
8
BLACK
6
CONTINUOUS
10
0.383851
20
0.909416
11
0.382111
21
0.910137
0
LINE
8
BLACK
6
CONTINUOUS
10
0.382111
20
0.910137
11
0.38139
21
0.911877
0
LINE
8
BLACK
6
CONTINUOUS
10
0.38139
20
0.911877
11
0.38139
21
0.91504
0
LINE
8
BLACK
6
CONTINUOUS
10
0.38139
20
0.91504
11
0.364166
21
0.91504
0
LINE
8
BLACK
6
CONTINUOUS
10
0.364166
20
0.91504
11
0.363932
21
0.915137
0
LINE
8
BLACK
6
CONTINUOUS
10
0.363932
20
0.915137
11
0.363683
21
0.915088
0
LINE
8
BLACK
6
CONTINUOUS
10
0.363683
20
0.915088
11
0.363088
21
0.915487
0
LINE
8
BLACK
6
CONTINUOUS
10
0.363088
20
0.915487
11
0.362426
21
0.915761
0
LINE
8
BLACK
6
CONTINUOUS
10
0.362426
20
0.915761
11
0.362329
21
0.915995
0
LINE
8
BLACK
6
CONTINUOUS
10
0.362329
20
0.915995
11
0.362118
21
0.916136
0
LINE
8
BLACK
6
CONTINUOUS
10
0.362118
20
0.916136
11
0.361979
21
0.916839
0
LINE
8
BLACK
6
CONTINUOUS
10
0.361979
20
0.916839
11
0.361705
21
0.917501
0
LINE
8
BLACK
6
CONTINUOUS
10
0.361705
20
0.917501
11
0.361802
21
0.917735
0
LINE
8
BLACK
6
CONTINUOUS
10
0.361802
20
0.917735
11
0.361753
21
0.917983
0
LINE
8
BLACK
6
CONTINUOUS
10
0.361753
20
0.917983
11
0.362152
21
0.918579
0
LINE
8
BLACK
6
CONTINUOUS
10
0.362152
20
0.918579
11
0.362426
21
0.919241
0
LINE
8
BLACK
6
CONTINUOUS
10
0.362426
20
0.919241
11
0.36266
21
0.919338
0
LINE
8
BLACK
6
CONTINUOUS
10
0.36266
20
0.919338
11
0.362801
21
0.919548
0
LINE
8
BLACK
6
CONTINUOUS
10
0.362801
20
0.919548
11
0.36541
21
0.921288
0
LINE
8
BLACK
6
CONTINUOUS
10
0.36541
20
0.921288
11
0.36683
21
0.922708
0
LINE
8
BLACK
6
CONTINUOUS
10
0.36683
20
0.922708
11
0.367589
21
0.924226
0
LINE
8
BLACK
6
CONTINUOUS
10
0.367589
20
0.924226
11
0.369012
21
0.92546
0
LINE
8
BLACK
6
CONTINUOUS
10
0.369012
20
0.92546
11
0.37089
21
0.925326
0
LINE
8
BLACK
6
CONTINUOUS
10
0.37089
20
0.925326
11
0.372124
21
0.923903
0
LINE
8
BLACK
6
CONTINUOUS
10
0.372124
20
0.923903
11
0.371991
21
0.922025
0
LINE
8
BLACK
6
CONTINUOUS
10
0.371991
20
0.922025
11
0.371054
21
0.92015
0
LINE
8
BLACK
6
CONTINUOUS
10
0.371054
20
0.92015
11
0.370836
21
0.919962
0
LINE
8
BLACK
6
CONTINUOUS
10
0.370836
20
0.919962
11
0.38139
21
0.919962
0
LINE
8
BLACK
6
CONTINUOUS
10
0.38139
20
0.919962
11
0.38139
21
0.923125
0
LINE
8
BLACK
6
CONTINUOUS
10
0.38139
20
0.923125
11
0.382111
21
0.924865
0
LINE
8
BLACK
6
CONTINUOUS
10
0.382111
20
0.924865
11
0.383851
21
0.925586
0
LINE
8
BLACK
6
CONTINUOUS
10
0.383851
20
0.925586
11
0.385591
21
0.924865
0
LINE
8
BLACK
6
CONTINUOUS
10
0.385591
20
0.940801
11
0.386311
21
0.939061
0
LINE
8
BLACK
6
CONTINUOUS
10
0.386311
20
0.939061
11
0.386311
21
0.937186
0
LINE
8
BLACK
6
CONTINUOUS
10
0.386311
20
0.937186
11
0.386156
21
0.936812
0
LINE
8
BLACK
6
CONTINUOUS
10
0.386156
20
0.936812
11
0.386185
21
0.936408
0
LINE
8
BLACK
6
CONTINUOUS
10
0.386185
20
0.936408
11
0.385248
21
0.933596
0
LINE
8
BLACK
6
CONTINUOUS
10
0.385248
20
0.933596
11
0.384872
21
0.933163
0
LINE
8
BLACK
6
CONTINUOUS
10
0.384872
20
0.933163
11
0.384653
21
0.932634
0
LINE
8
BLACK
6
CONTINUOUS
10
0.384653
20
0.932634
11
0.382779
21
0.930759
0
LINE
8
BLACK
6
CONTINUOUS
10
0.382779
20
0.930759
11
0.382249
21
0.93054
0
LINE
8
BLACK
6
CONTINUOUS
10
0.382249
20
0.93054
11
0.381817
21
0.930165
0
LINE
8
BLACK
6
CONTINUOUS
10
0.381817
20
0.930165
11
0.379005
21
0.929227
0
LINE
8
BLACK
6
CONTINUOUS
10
0.379005
20
0.929227
11
0.378601
21
0.929256
0
LINE
8
BLACK
6
CONTINUOUS
10
0.378601
20
0.929256
11
0.378226
21
0.929101
0
LINE
8
BLACK
6
CONTINUOUS
10
0.378226
20
0.929101
11
0.364166
21
0.929101
0
LINE
8
BLACK
6
CONTINUOUS
10
0.364166
20
0.929101
11
0.362426
21
0.929822
0
LINE
8
BLACK
6
CONTINUOUS
10
0.362426
20
0.929822
11
0.361705
21
0.931562
0
LINE
8
BLACK
6
CONTINUOUS
10
0.361705
20
0.931562
11
0.362426
21
0.933302
0
LINE
8
BLACK
6
CONTINUOUS
10
0.362426
20
0.933302
11
0.364166
21
0.934022
0
LINE
8
BLACK
6
CONTINUOUS
10
0.364166
20
0.934022
11
0.377827
21
0.934022
0
LINE
8
BLACK
6
CONTINUOUS
10
0.377827
20
0.934022
11
0.379709
21
0.93465
0
LINE
8
BLACK
6
CONTINUOUS
10
0.379709
20
0.93465
11
0.380763
21
0.935703
0
LINE
8
BLACK
6
CONTINUOUS
10
0.380763
20
0.935703
11
0.38139
21
0.937585
0
LINE
8
BLACK
6
CONTINUOUS
10
0.38139
20
0.937585
11
0.38139
21
0.939061
0
LINE
8
BLACK
6
CONTINUOUS
10
0.38139
20
0.939061
11
0.382111
21
0.940801
0
LINE
8
BLACK
6
CONTINUOUS
10
0.382111
20
0.940801
11
0.383851
21
0.941521
0
LINE
8
BLACK
6
CONTINUOUS
10
0.383851
20
0.941521
11
0.385591
21
0.940801
0
LINE
8
BLACK
6
CONTINUOUS
10
0.360009
20
1.27001
11
0.361556
21
1.26871
0
LINE
8
BLACK
6
CONTINUOUS
10
0.361556
20
1.26871
11
0.361907
21
1.26672
0
LINE
8
BLACK
6
CONTINUOUS
10
0.361907
20
1.26672
11
0.360897
21
1.26497
0
LINE
8
BLACK
6
CONTINUOUS
10
0.360897
20
1.26497
11
0.358999
21
1.26428
0
LINE
8
BLACK
6
CONTINUOUS
10
0.358999
20
1.26428
11
0.346954
21
1.26428
0
LINE
8
BLACK
6
CONTINUOUS
10
0.346954
20
1.26428
11
0.346954
21
1.25519
0
LINE
8
BLACK
6
CONTINUOUS
10
0.346954
20
1.25519
11
0.354499
21
1.25519
0
LINE
8
BLACK
6
CONTINUOUS
10
0.354499
20
1.25519
11
0.355509
21
1.25501
0
LINE
8
BLACK
6
CONTINUOUS
10
0.355509
20
1.25501
11
0.357057
21
1.25371
0
LINE
8
BLACK
6
CONTINUOUS
10
0.357057
20
1.25371
11
0.357407
21
1.25172
0
LINE
8
BLACK
6
CONTINUOUS
10
0.357407
20
1.25172
11
0.356397
21
1.24997
0
LINE
8
BLACK
6
CONTINUOUS
10
0.356397
20
1.24997
11
0.354499
21
1.24928
0
LINE
8
BLACK
6
CONTINUOUS
10
0.354499
20
1.24928
11
0.346954
21
1.24928
0
LINE
8
BLACK
6
CONTINUOUS
10
0.346954
20
1.24928
11
0.346954
21
1.23574
0
LINE
8
BLACK
6
CONTINUOUS
10
0.346954
20
1.23574
11
0.346775
21
1.23473
0
LINE
8
BLACK
6
CONTINUOUS
10
0.346775
20
1.23473
11
0.345477
21
1.23318
0
LINE
8
BLACK
6
CONTINUOUS
10
0.345477
20
1.23318
11
0.343488
21
1.23283
0
LINE
8
BLACK
6
CONTINUOUS
10
0.343488
20
1.23283
11
0.341739
21
1.23384
0
LINE
8
BLACK
6
CONTINUOUS
10
0.341739
20
1.23384
11
0.341048
21
1.23574
0
LINE
8
BLACK
6
CONTINUOUS
10
0.341048
20
1.23574
11
0.341048
21
1.26723
0
LINE
8
BLACK
6
CONTINUOUS
10
0.341048
20
1.26723
11
0.341116
21
1.26762
0
LINE
8
BLACK
6
CONTINUOUS
10
0.341116
20
1.26762
11
0.341093
21
1.26775
0
LINE
8
BLACK
6
CONTINUOUS
10
0.341093
20
1.26775
11
0.341158
21
1.26786
0
LINE
8
BLACK
6
CONTINUOUS
10
0.341158
20
1.26786
11
0.341226
21
1.26824
0
LINE
8
BLACK
6
CONTINUOUS
10
0.341226
20
1.26824
11
0.341719
21
1.26883
0
LINE
8
BLACK
6
CONTINUOUS
10
0.341719
20
1.26883
11
0.342103
21
1.26949
0
LINE
8
BLACK
6
CONTINUOUS
10
0.342103
20
1.26949
11
0.342353
21
1.26959
0
LINE
8
BLACK
6
CONTINUOUS
10
0.342353
20
1.26959
11
0.342524
21
1.26979
0
LINE
8
BLACK
6
CONTINUOUS
10
0.342524
20
1.26979
11
0.34328
21
1.26992
0
LINE
8
BLACK
6
CONTINUOUS
10
0.34328
20
1.26992
11
0.344001
21
1.27019
0
LINE
8
BLACK
6
CONTINUOUS
10
0.344001
20
1.27019
11
0.358999
21
1.27019
0
LINE
8
BLACK
6
CONTINUOUS
10
0.358999
20
1.27019
11
0.360009
21
1.27001
0
LINE
8
BLACK
6
CONTINUOUS
10
0.620193
20
1.31839
11
0.620741
21
1.31835
0
LINE
8
BLACK
6
CONTINUOUS
10
0.620741
20
1.31835
11
0.620996
21
1.31806
0
LINE
8
BLACK
6
CONTINUOUS
10
0.620996
20
1.31806
11
0.621355
21
1.31791
0
LINE
8
BLACK
6
CONTINUOUS
10
0.621355
20
1.31791
11
0.621566
21
1.3174
0
LINE
8
BLACK
6
CONTINUOUS
10
0.621566
20
1.3174
11
0.621926
21
1.31699
0
LINE
8
BLACK
6
CONTINUOUS
10
0.621926
20
1.31699
11
0.621898
21
1.3166
0
LINE
8
BLACK
6
CONTINUOUS
10
0.621898
20
1.3166
11
0.622047
21
1.31624
0
LINE
8
BLACK
6
CONTINUOUS
10
0.622047
20
1.31624
11
0.621837
21
1.31573
0
LINE
8
BLACK
6
CONTINUOUS
10
0.621837
20
1.31573
11
0.621798
21
1.31518
0
LINE
8
BLACK
6
CONTINUOUS
10
0.621798
20
1.31518
11
0.602113
21
1.27581
0
LINE
8
BLACK
6
CONTINUOUS
10
0.602113
20
1.27581
11
0.601547
21
1.27532
0
LINE
8
BLACK
6
CONTINUOUS
10
0.601547
20
1.27532
11
0.601056
21
1.27476
0
LINE
8
BLACK
6
CONTINUOUS
10
0.601056
20
1.27476
11
0.60088
21
1.27474
0
LINE
8
BLACK
6
CONTINUOUS
10
0.60088
20
1.27474
11
0.600747
21
1.27463
0
LINE
8
BLACK
6
CONTINUOUS
10
0.600747
20
1.27463
11
0.6
21
1.27468
0
LINE
8
BLACK
6
CONTINUOUS
10
0.6
20
1.27468
11
0.599253
21
1.27463
0
LINE
8
BLACK
6
CONTINUOUS
10
0.599253
20
1.27463
11
0.59912
21
1.27474
0
LINE
8
BLACK
6
CONTINUOUS
10
0.59912
20
1.27474
11
0.598944
21
1.27476
0
LINE
8
BLACK
6
CONTINUOUS
10
0.598944
20
1.27476
11
0.598453
21
1.27532
0
LINE
8
BLACK
6
CONTINUOUS
10
0.598453
20
1.27532
11
0.597887
21
1.27581
0
LINE
8
BLACK
6
CONTINUOUS
10
0.597887
20
1.27581
11
0.578202
21
1.31518
0
LINE
8
BLACK
6
CONTINUOUS
10
0.578202
20
1.31518
11
0.578163
21
1.31573
0
LINE
8
BLACK
6
CONTINUOUS
10
0.578163
20
1.31573
11
0.577953
21
1.31624
0
LINE
8
BLACK
6
CONTINUOUS
10
0.577953
20
1.31624
11
0.578102
21
1.3166
0
LINE
8
BLACK
6
CONTINUOUS
10
0.578102
20
1.3166
11
0.578074
21
1.31699
0
LINE
8
BLACK
6
CONTINUOUS
10
0.578074
20
1.31699
11
0.578434
21
1.3174
0
LINE
8
BLACK
6
CONTINUOUS
10
0.578434
20
1.3174
11
0.578645
21
1.31791
0
LINE
8
BLACK
6
CONTINUOUS
10
0.578645
20
1.31791
11
0.579004
21
1.31806
0
LINE
8
BLACK
6
CONTINUOUS
10
0.579004
20
1.31806
11
0.579259
21
1.31835
0
LINE
8
BLACK
6
CONTINUOUS
10
0.579259
20
1.31835
11
0.579807
21
1.31839
0
LINE
8
BLACK
6
CONTINUOUS
10
0.579807
20
1.31839
11
0.580315
21
1.3186
0
LINE
8
BLACK
6
CONTINUOUS
10
0.580315
20
1.3186
11
0.619685
21
1.3186
0
LINE
8
BLACK
6
CONTINUOUS
10
0.619685
20
1.3186
11
0.620193
21
1.31839
0
LINE
8
BLACK
6
CONTINUOUS
10
0.584137
20
1.31388
11
0.6
21
1.28215
0
LINE
8
BLACK
6
CONTINUOUS
10
0.6
20
1.28215
11
0.615863
21
1.31388
0
LINE
8
BLACK
6
CONTINUOUS
10
0.615863
20
1.31388
11
0.584137
21
1.31388
  0
ENDSEC
  0
EOF
